<svg viewBox="0 0 568 292" fill="none" xmlns="http://www.w3.org/2000/svg">
<!-- Sparkee logo 124:3 part: mascot outline band extended 0.5 under the fills (use when stacking band + fills; avoids anti-alias seams). Coordinates identical to assets/img/logo.svg. Exported from Figma boolean (4OdxiJ5jvTf0SMYucdkwtK, page Logo dark). -->
<g id="mascot_outline_underlap">
<path d="M221.748 125.207C221.882 125.094 222.066 125.057 222.232 125.113L222.235 125.114L222.297 125.14C222.357 125.17 222.412 125.212 222.456 125.263C222.467 125.275 222.475 125.286 222.48 125.292L222.481 125.294C222.476 125.288 222.468 125.277 222.457 125.265C222.566 125.391 222.605 125.564 222.561 125.725C222.517 125.885 222.395 126.014 222.238 126.067L222.235 126.068C222.184 126.085 222.13 126.093 222.077 126.093H222.075C221.83 126.093 221.622 125.916 221.581 125.675L221.581 125.669C221.552 125.497 221.615 125.321 221.748 125.207Z" fill="#2C303C"/>
<path d="M200.266 118.638C200.461 118.61 200.654 118.7 200.759 118.866C200.761 118.868 200.762 118.87 200.766 118.876C200.865 119.03 200.872 119.226 200.785 119.386C200.697 119.547 200.528 119.647 200.345 119.647C200.342 119.647 200.338 119.647 200.333 119.647C200.177 119.647 200.029 119.573 199.934 119.448C199.84 119.322 199.81 119.16 199.853 119.009L199.857 118.995L199.881 118.927C199.951 118.773 200.096 118.663 200.266 118.638Z" fill="#2C303C"/>
<path d="M265.888 117.331C266.113 117.28 266.339 117.389 266.443 117.586C266.489 117.661 266.516 117.748 266.518 117.839V117.849C266.521 117.983 266.469 118.113 266.375 118.209C266.282 118.305 266.152 118.36 266.018 118.36H266.007C265.759 118.36 265.548 118.177 265.512 117.932C265.51 117.92 265.507 117.897 265.506 117.89C265.469 117.633 265.635 117.39 265.888 117.331Z" fill="#2C303C"/>
<path fill-rule="evenodd" clip-rule="evenodd" d="M187.373 102.09C187.529 102.025 187.708 102.042 187.848 102.136C187.863 102.146 187.876 102.156 187.882 102.161C187.886 102.164 187.889 102.167 187.891 102.168L187.892 102.169C187.892 102.169 187.887 102.166 187.884 102.163L187.851 102.14C188.02 102.251 188.107 102.454 188.069 102.653C188.03 102.852 187.874 103.008 187.675 103.048L187.665 103.05C187.503 103.082 187.335 103.032 187.217 102.916C187.114 102.815 187.06 102.674 187.068 102.532L187.07 102.514C187.07 102.512 187.07 102.506 187.071 102.502C187.072 102.494 187.074 102.48 187.077 102.463L187.091 102.402C187.135 102.263 187.237 102.148 187.373 102.09Z" fill="#2C303C"/>
<path fill-rule="evenodd" clip-rule="evenodd" d="M187.052 93.3851C187.223 93.3122 187.421 93.3404 187.565 93.4574C187.706 93.5724 187.773 93.7553 187.741 93.9339C187.741 93.9339 187.74 93.9381 187.74 93.9408V93.9437C187.739 93.9475 187.738 93.9533 187.737 93.9593C187.699 94.1471 187.557 94.2979 187.372 94.346C187.359 94.3494 187.347 94.3516 187.34 94.3529H187.337C187.343 94.3518 187.352 94.3499 187.364 94.347C187.214 94.3847 187.056 94.3516 186.934 94.2572C186.813 94.1625 186.742 94.0165 186.742 93.8626V93.8499C186.742 93.6957 186.812 93.5527 186.929 93.4593L186.971 93.43C186.964 93.4345 186.958 93.4383 186.955 93.4408C186.953 93.442 186.95 93.4447 186.95 93.4447L186.951 93.4437C186.951 93.4437 186.954 93.441 186.956 93.4398C186.959 93.437 186.966 93.4322 186.974 93.4271C186.982 93.4219 186.993 93.4154 187.005 93.4085C187.018 93.4014 187.034 93.3928 187.052 93.3851Z" fill="#2C303C"/>
<path fill-rule="evenodd" clip-rule="evenodd" d="M237.302 78.2396C237.483 78.2036 237.67 78.2699 237.788 78.4124C237.904 78.5552 237.933 78.7519 237.862 78.9222L237.857 78.9339C237.783 79.1116 237.613 79.2309 237.42 79.2406C237.415 79.2408 237.409 79.2405 237.405 79.2406C237.252 79.2445 237.106 79.1787 237.008 79.0618C236.909 78.9433 236.871 78.785 236.904 78.6341C236.907 78.6175 236.912 78.6023 236.915 78.5902L236.926 78.5589C236.985 78.3972 237.125 78.2751 237.297 78.2406L237.302 78.2396Z" fill="#2C303C"/>
<path fill-rule="evenodd" clip-rule="evenodd" d="M252.664 77.1117C252.817 77.0996 252.967 77.1559 253.072 77.2689C253.183 77.3894 253.228 77.5572 253.192 77.7171C253.196 77.6987 253.199 77.6833 253.2 77.6751V77.679C253.198 77.6886 253.195 77.7058 253.191 77.7259C253.153 77.8914 253.034 78.0264 252.874 78.0843C252.872 78.0854 252.867 78.0875 252.863 78.0892C252.661 78.163 252.435 78.0993 252.3 77.932L252.292 77.9222C252.176 77.777 252.15 77.5787 252.225 77.4085C252.297 77.2455 252.45 77.1336 252.626 77.1136L252.633 77.1126L252.636 77.1117C252.64 77.1113 252.646 77.111 252.65 77.1107L252.664 77.1097V77.1117Z" fill="#2C303C"/>
<path fill-rule="evenodd" clip-rule="evenodd" d="M186.131 75.432C186.298 75.4089 186.467 75.4717 186.578 75.599C186.688 75.7265 186.727 75.9025 186.681 76.0648L186.679 76.0716C186.674 76.0894 186.668 76.1073 186.661 76.1243C186.65 76.1488 186.64 76.1697 186.631 76.1849C186.623 76.2 186.614 76.2124 186.608 76.221C186.602 76.2294 186.597 76.2367 186.594 76.2406L186.592 76.2425L186.589 76.2464L186.59 76.2445L186.549 76.2913C186.472 76.3681 186.37 76.4189 186.258 76.4329C186.102 76.4522 185.946 76.3963 185.838 76.2855L185.802 76.2435L185.799 76.2406C185.795 76.2354 185.782 76.2193 185.769 76.1986C185.671 76.0447 185.665 75.8489 185.752 75.6888C185.822 75.5623 185.941 75.4733 186.079 75.4417C186.081 75.4413 186.083 75.4412 186.085 75.4408C186.098 75.4378 186.114 75.4344 186.131 75.432ZM186.315 75.849L186.612 75.6595C186.607 75.652 186.602 75.645 186.598 75.64L186.315 75.849Z" fill="#2C303C"/>
<path d="M190.706 72.5814C190.945 72.5152 191.198 72.6335 191.298 72.8597L191.302 72.8685C191.401 73.0907 191.325 73.3526 191.122 73.4876L191.12 73.4896C190.976 73.5856 190.792 73.5995 190.634 73.5277C190.477 73.4556 190.368 73.3068 190.346 73.1351L190.345 73.1253L190.342 73.0335C190.355 72.824 190.498 72.6397 190.706 72.5814Z" fill="#2C303C"/>
<path fill-rule="evenodd" clip-rule="evenodd" d="M191.866 58.8079C192.034 58.7207 192.239 58.7366 192.392 58.849C192.545 58.9616 192.621 59.1522 192.588 59.3392C192.588 59.3424 192.586 59.3462 192.585 59.349L192.586 59.3499C192.564 59.4799 192.491 59.5965 192.383 59.6732C192.368 59.6843 192.353 59.6935 192.34 59.7005C192.338 59.7019 192.335 59.7032 192.332 59.7044L192.303 59.72L192.289 59.7259C192.29 59.725 192.293 59.7232 192.295 59.722C192.134 59.796 191.943 59.7808 191.795 59.6751C191.623 59.5516 191.548 59.3326 191.607 59.1292L191.609 59.1224L191.642 59.0384L191.646 59.0306L191.685 58.9652C191.729 58.9032 191.787 58.8514 191.854 58.8148C191.858 58.8128 191.862 58.81 191.866 58.8079ZM192.327 59.6956L192.331 59.6927L192.177 59.4085L192.327 59.6956Z" fill="#2C303C"/>
<path fill-rule="evenodd" clip-rule="evenodd" d="M181.294 62.1185C184.922 54.1005 192.753 50.0962 201.432 51.8792C206.626 52.9442 211.46 55.0911 215.879 58.1781L231.706 69.2308C234.929 71.4807 238.022 72.3919 241.957 71.8509C252.384 70.4149 267.589 68.5481 275.846 73.429C284.206 78.366 284.337 90.8086 280.214 98.9466L273.557 112.085C272.811 113.56 272.173 115.075 272.116 116.767C273.141 127.968 267.953 137.467 259.559 145.389C266.33 147.837 273.232 147.963 279.764 145.286C282.612 144.119 285.681 145.087 287.441 147.064C289.479 149.353 289.605 152.82 287.948 155.65C285.117 160.485 279.696 162.986 274.183 164.125C274.331 165.799 275.727 166.004 277.196 166.158C284.485 166.921 290.118 171.917 293.609 178.118C295.249 181.027 295.757 184.12 295.119 187.206C294.943 188.053 293.351 189.622 292.677 190.168C289.709 192.571 286.064 192.422 282.815 190.675C279.918 189.117 277.05 186.492 273.719 188.842C273.301 189.138 272.982 189.508 272.636 189.88C271.439 191.165 270.705 192.074 270.747 193.951C270.771 195.033 271.246 196.033 271.529 197.064C272.072 199.037 272.624 201.007 273.163 202.981C273.38 203.776 273.645 204.562 273.79 205.375C273.915 206.07 273.951 206.778 273.916 207.484C273.828 209.219 272.991 210.845 271.778 212.061C268.67 215.178 263.71 215.717 259.937 213.507C259.298 213.133 258.709 212.649 258.185 212.128C257.523 211.471 256.939 210.721 256.33 210.016C255.36 208.894 254.377 207.782 253.419 206.65C252.613 205.696 251.927 204.681 250.844 204.01C250.781 203.971 250.656 203.861 250.589 203.847C245.686 202.793 241.131 202.024 236.552 199.154C235.001 198.182 233.746 196.972 231.809 196.923C229.658 196.868 228.704 198.281 225.9 197.715C224.288 197.39 223.311 196.412 221.892 195.736C220.164 194.912 218.293 194.569 216.394 194.447C211.145 194.109 207.458 194.496 203.757 190.028C203.231 189.394 202.381 188.251 202.143 187.468C199.905 180.099 202.457 171.887 208.271 166.568C201.289 166.204 195.167 164.045 190.212 159.574C188.555 158.077 186.915 157.376 184.643 156.938L168.943 153.92C164.808 153.123 161.106 151.306 157.877 148.731C152.496 144.443 150.446 137.666 152.877 131.214C156.295 122.148 165.457 113.258 172.547 105.689C174.7 103.389 175.868 100.639 176.067 97.4388L177.195 79.6976C177.588 73.5138 178.801 67.6313 181.294 62.1185ZM282.428 148.277C281.453 148.246 280.411 148.566 279.544 149.118C279.458 149.182 279.354 149.219 279.245 149.219C279.199 149.219 279.145 149.217 279.101 149.216C279.054 149.215 279.008 149.214 278.966 149.214C278.924 149.215 278.89 149.216 278.865 149.219C278.857 149.22 278.85 149.22 278.846 149.221C278.819 149.231 278.79 149.237 278.761 149.242C275.641 150.269 272.375 150.914 269.048 150.77C269.006 150.773 268.964 150.772 268.921 150.765C265.229 150.589 261.554 149.942 257.879 148.509C257.726 148.451 257.59 148.455 257.436 148.49C257.353 148.508 257.269 148.535 257.168 148.568C257.12 148.584 257.062 148.602 257.002 148.62L257.001 148.622C247.304 156.556 236.043 162.169 223.869 165.359C223.832 165.368 223.794 165.373 223.756 165.374L212.468 167.43C211.325 167.638 210.305 168.517 209.422 169.678C208.548 170.828 207.87 172.172 207.384 173.175L207.381 173.18C207.351 173.241 207.326 173.304 207.305 173.368C207.298 173.389 207.29 173.411 207.28 173.431L205.814 176.465C205.801 176.5 205.784 176.534 205.763 176.566C204.106 180.045 204.062 184.575 206.291 187.706C206.303 187.719 206.317 187.731 206.327 187.744C208.371 190.57 211.03 190.799 214.336 190.931C217.521 191.058 221.234 191.096 225.057 193.618L225.427 193.87C226.63 194.716 227.976 194.472 229.053 193.885L229.266 193.762C229.971 193.335 230.55 192.897 230.972 192.334C231.388 191.78 231.674 191.074 231.743 190.076C231.967 186.739 230.252 184.015 227.431 182.088C224.601 180.156 220.688 179.055 216.661 179.01C215.566 178.998 214.699 178.726 213.995 178.328C213.99 178.326 213.986 178.325 213.984 178.324L213.982 178.322L213.987 178.324C213.828 178.238 213.726 178.074 213.723 177.892C213.712 177.188 214.159 176.686 214.73 176.361C215.295 176.039 216.061 175.838 216.914 175.725C218.544 175.51 220.643 175.604 222.683 175.959L224.437 173.504C224.529 173.376 224.676 173.299 224.833 173.295C224.991 173.292 225.142 173.363 225.239 173.488C226.235 174.766 226.196 175.791 226.263 176.984C230.45 178.594 233.221 181.662 235.105 185.332L235.479 186.093L235.505 186.162C235.512 186.186 235.518 186.211 235.522 186.236L235.552 186.435L235.556 186.46C235.801 188.739 235.777 191.014 234.894 193.539C238.358 197.122 243.135 198.787 248.146 199.814C251.218 200.446 253.542 201.568 255.656 204.015L260.348 209.442C262.534 211.972 266.643 212.104 269.108 209.903L269.385 209.638C269.989 209.02 270.306 208.383 270.44 207.74C270.583 207.049 270.521 206.315 270.327 205.54C270.268 205.455 270.236 205.351 270.24 205.244L268.144 197.647C266.966 193.367 263.782 190.64 260.238 187.428C260.039 187.248 260.018 186.943 260.19 186.738C260.759 186.056 261.405 185.861 262.01 185.856C262.295 185.853 262.567 185.893 262.793 185.928C262.914 185.947 263.019 185.964 263.113 185.977L263.368 186L263.476 186.016C263.511 186.025 263.546 186.038 263.579 186.054L263.581 186.055C263.583 186.056 263.589 186.059 263.593 186.061L263.613 186.07L263.632 186.08C265.126 186.908 266.562 187.78 267.925 189.483C270.746 187.5 272.584 184.657 273.714 181.207C273.845 180.807 274.178 180.306 274.528 179.964C274.701 179.795 274.924 179.617 275.175 179.534C275.306 179.49 275.47 179.464 275.644 179.502C275.781 179.532 275.902 179.597 276.001 179.687L276.094 179.785L276.14 179.852C276.598 180.659 276.678 181.472 276.592 182.296C276.528 182.912 276.365 183.565 276.196 184.233C279.11 184.426 281.281 185.828 283.189 186.957C285.265 188.186 286.987 189.065 289.188 188.305C289.779 188.102 290.465 187.652 291.016 187.036C291.555 186.434 291.934 185.708 292.001 184.946C292.001 184.93 291.999 184.913 292 184.898C292.1 183.51 291.68 181.85 290.829 180.118C289.98 178.393 288.719 176.628 287.186 175.043C284.241 171.999 280.363 169.686 276.57 169.477C276.586 169.943 276.59 170.432 276.486 170.868C276.323 171.545 275.908 172.102 275.07 172.485C274.946 172.541 274.803 172.544 274.676 172.493C274.549 172.443 274.449 172.341 274.398 172.214C272.114 166.482 268.604 162.309 263.658 158.922C261.587 157.504 259.34 156.059 257.895 153.641C257.799 153.481 257.801 153.28 257.899 153.121C257.997 152.963 258.175 152.872 258.361 152.885C261.156 153.088 263.305 154.508 265.284 155.626C265.296 155.632 265.309 155.635 265.321 155.642C267.257 156.74 269.253 158.103 270.878 159.669C270.919 159.699 270.956 159.735 270.987 159.776C271.203 159.99 271.392 160.213 271.549 160.389C271.728 160.588 271.876 160.74 272.035 160.853C272.307 161.046 272.684 161.178 273.476 160.991L274.251 160.793C278.093 159.756 281.448 157.934 283.52 155.89C284.625 154.8 285.337 153.674 285.594 152.6C285.846 151.547 285.669 150.512 284.938 149.537C284.932 149.53 284.925 149.523 284.92 149.516C284.289 148.682 283.397 148.308 282.428 148.277ZM198.26 54.9281C193.185 54.7122 188.501 56.5115 185.543 61.5677C180.855 69.5777 180.59 79.4854 180.076 89.1458C180.075 89.1632 180.07 89.1806 180.067 89.1976C179.851 93.2294 179.946 97.3138 178.845 101.428C177.731 105.591 174.644 108.402 171.983 111.287C171.96 111.336 171.928 111.38 171.89 111.419L171.892 111.421C168.46 115.157 165.05 118.416 162.099 122.406C162.078 122.434 162.055 122.458 162.03 122.481C159.167 126.35 156.287 130.138 155.555 134.781C155.555 134.785 155.555 134.791 155.554 134.795C155.18 137.168 155.201 139.51 156.459 141.27C156.557 141.407 156.579 141.585 156.518 141.742L156.847 142.538C156.97 142.571 157.08 142.65 157.148 142.763C157.186 142.827 157.209 142.898 157.216 142.97C160.929 148.463 167.81 150.465 174.67 151.725C178.086 152.352 181.551 152.804 184.448 153.423C187.344 154.042 189.861 154.859 191.409 156.311C193.962 158.703 196.959 160.46 200.307 161.595C200.35 161.602 200.393 161.615 200.433 161.633C206.991 163.817 214.874 163.423 222.678 161.555C230.478 159.688 238.151 156.361 244.253 152.743C244.269 152.731 244.285 152.72 244.301 152.71C250.362 149.11 256.814 144.051 261.585 138.087C266.358 132.121 269.414 125.296 268.789 118.138L268.76 117.753C268.636 115.83 268.87 113.919 269.8 112.144L275.381 101.455L275.855 100.521C278.156 95.8504 279.588 90.8707 279.259 85.7777C279.251 85.7474 279.246 85.7155 279.244 85.6839C278.898 80.6162 276.624 77.6201 273.281 75.8734C269.892 74.103 265.361 73.5946 260.497 73.6527C255.639 73.7107 250.535 74.3301 246.011 74.7601C243.757 74.9743 241.644 75.1413 239.794 75.1634C238.009 75.1848 236.43 75.0702 235.19 74.7142C235.148 74.7124 235.105 74.7073 235.064 74.6947C232.038 73.7626 229.531 71.8034 226.996 70.0404L213.22 60.4564C208.835 57.4049 203.361 55.1453 198.26 54.9281Z" fill="#2C303C"/>
</g>
</svg>
